<?xml version="1.0" encoding="utf-8"?>
<!-- Generator: Adobe Illustrator 16.0.0, SVG Export Plug-In . SVG Version: 6.00 Build 0)  -->
<!DOCTYPE svg PUBLIC "-//W3C//DTD SVG 1.1//EN" "http://www.w3.org/Graphics/SVG/1.1/DTD/svg11.dtd">
<svg version="1.1" id="Calque_1" xmlns="http://www.w3.org/2000/svg" xmlns:xlink="http://www.w3.org/1999/xlink" x="0px" y="0px"
	 width="283.463px" height="224.076px" viewBox="0 0 283.463 224.076" enable-background="new 0 0 283.463 224.076"
	 xml:space="preserve">
<g>
	<g>
		<g>
			<path fill="#6D7A8F" d="M255.117,15c7.359,0,13.346,5.987,13.346,13.347v167.382c0,7.36-5.986,13.348-13.346,13.348H28.346
				c-7.359,0-13.346-5.987-13.346-13.348V28.347C15,20.987,20.987,15,28.346,15H255.117 M255.117,0H28.346
				C12.756,0,0,12.756,0,28.347v167.382c0,15.592,12.756,28.348,28.346,28.348h226.771c15.59,0,28.346-12.756,28.346-28.348V28.347
				C283.463,12.756,270.707,0,255.117,0L255.117,0z"/>
		</g>
	</g>
	<g>
		<g>
			<path fill="#6D7A8F" d="M137.881,66.814c0-4.061,3.316-7.384,7.383-7.384h1.43c4.066,0,7.385,3.323,7.385,7.384v92.085
				c0,4.064-3.318,7.384-7.385,7.384h-1.43c-4.066,0-7.383-3.319-7.383-7.384V66.814z"/>
			<path fill="#6D7A8F" d="M185.164,66.814c0-4.061,3.318-7.384,7.383-7.384h26.084c4.063,0,7.385,2.871,7.385,6.38
				c0,3.51-3.322,6.38-7.385,6.38h-9.883c-4.059,0-3.977,0.068-7.383,0.068v24.52c0,4.059,0.004,4.059,0.004,7.385h11.945
				c4.059,0,7.385,2.87,7.385,6.382s-3.326,6.384-7.385,6.384h-4.566c-4.059,0-4.059-0.028-7.383-0.028v41.999
				c0,4.064-3.322,7.384-7.385,7.384h-1.434c-4.064,0-7.383-3.319-7.383-7.384V66.814z"/>
		</g>
		<path fill="#6D7A8F" d="M103.611,99.162c4.313,0,7.814-3.499,7.814-7.817v-7.634c0-14.391-12.447-26.097-27.744-26.097
			S55.938,69.32,55.938,83.711v56.655c0,14.393,12.447,26.096,27.744,26.096c5.871,0,11.318-1.725,15.805-4.663
			c0.705,2.579,3.059,4.474,5.859,4.474c3.357,0,6.08-2.718,6.08-6.079v-17.654c0-0.24-0.021-0.475-0.049-0.709
			c0.029-0.485,0.049-0.976,0.049-1.464v-21.132c0-0.277-0.02-0.549-0.049-0.831c0.027-0.233,0.049-0.47,0.049-0.71
			c0-3.349-2.723-6.076-6.08-6.076h-0.012c-0.557-0.127-1.133-0.195-1.723-0.195c-0.594,0-1.17,0.068-1.727,0.195H89.584
			c-3.357,0-6.078,2.728-6.078,6.076c0,3.358,2.721,6.086,6.078,6.086h6.209v16.587c0,5.773-5.432,10.472-12.111,10.472
			c-6.682,0-12.115-4.698-12.115-10.472V83.711c0-5.772,5.434-10.469,12.115-10.469c6.68,0,12.111,4.696,12.111,10.469v7.634
			C95.793,95.663,99.295,99.162,103.611,99.162z"/>
	</g>
</g>
</svg>
