<?xml version="1.0" encoding="utf-8"?>
<!-- Generator: Adobe Illustrator 16.0.0, SVG Export Plug-In . SVG Version: 6.00 Build 0)  -->
<!DOCTYPE svg PUBLIC "-//W3C//DTD SVG 1.1//EN" "http://www.w3.org/Graphics/SVG/1.1/DTD/svg11.dtd">
<svg version="1.1" id="Calque_1" xmlns="http://www.w3.org/2000/svg" xmlns:xlink="http://www.w3.org/1999/xlink" x="0px" y="0px"
	 width="283.464px" height="239.869px" viewBox="0 0 283.464 239.869" enable-background="new 0 0 283.464 239.869"
	 xml:space="preserve">
<g>
	<circle fill="#D2525B" cx="142.444" cy="133.024" r="53.209"/>
	<path fill="#D2525B" d="M255.83,42.891h-41.156l-14.535-29.918C193.5,0.225,187.566,0.225,179.771,0.225h-74.655
		c-7.795,0-13.117,0-20.367,12.748L70.214,42.891H29.058c-15.59,0-28.346,12.756-28.346,28.347v140.509
		c0,15.592,12.756,28.348,28.346,28.348H255.83c15.59,0,28.346-12.756,28.346-28.348V71.238
		C284.176,55.647,271.42,42.891,255.83,42.891z M142.444,217.247c-46.44,0-84.223-37.783-84.223-84.223
		c0-46.441,37.782-84.223,84.223-84.223c46.441,0,84.222,37.782,84.222,84.223C226.666,179.464,188.885,217.247,142.444,217.247z
		 M243.182,87.142c-5.48,0-9.922-4.441-9.922-9.921s4.441-9.921,9.922-9.921c5.479,0,9.92,4.441,9.92,9.921
		S248.66,87.142,243.182,87.142z"/>
</g>
</svg>
