<?xml version="1.0" encoding="utf-8"?>
<!-- Generator: Adobe Illustrator 16.0.0, SVG Export Plug-In . SVG Version: 6.00 Build 0)  -->
<!DOCTYPE svg PUBLIC "-//W3C//DTD SVG 1.1//EN" "http://www.w3.org/Graphics/SVG/1.1/DTD/svg11.dtd">
<svg version="1.1" id="Calque_1" xmlns="http://www.w3.org/2000/svg" xmlns:xlink="http://www.w3.org/1999/xlink" x="0px" y="0px"
	 width="283.464px" height="283.464px" viewBox="0 0 283.464 283.464" enable-background="new 0 0 283.464 283.464"
	 xml:space="preserve">
<g>
	<g>
		<g>
			<path fill="#6C7A8F" d="M88.61,167.352c0,5.924-5.438,10.729-12.146,10.729l0,0c-6.709,0-12.146-4.805-12.146-10.729v-30.805
				c0-5.925,5.438-10.729,12.146-10.729l0,0c6.708,0,12.146,4.804,12.146,10.729V167.352z"/>
			<path fill="#6C7A8F" d="M218.417,167.352c0,5.924-5.438,10.729-12.146,10.729l0,0c-6.708,0-12.146-4.805-12.146-10.729v-30.805
				c0-5.925,5.438-10.729,12.146-10.729l0,0c6.709,0,12.146,4.804,12.146,10.729V167.352z"/>
		</g>
		<path fill="#6C7A8F" d="M195.112,224.374c-1.093,0-2.201-0.239-3.251-0.746c-0.177-0.084-19.829-9.256-50.494-9.256
			c-30.929,0-50.302,9.164-50.494,9.256c-3.732,1.797-8.214,0.231-10.012-3.5c-1.798-3.731-0.231-8.214,3.5-10.012
			c0.91-0.439,22.688-10.744,57.006-10.744s56.096,10.305,57.006,10.744c3.731,1.798,5.299,6.28,3.501,10.012
			C200.581,222.809,197.901,224.374,195.112,224.374z"/>
		<path fill="#6C7A8F" d="M141.367,15.006c33.852,0,65.677,13.182,89.613,37.118s37.119,55.762,37.119,89.613
			s-13.183,65.677-37.119,89.613s-55.762,37.119-89.613,37.119c-33.851,0-65.676-13.183-89.613-37.119s-37.119-55.762-37.119-89.613
			s13.183-65.677,37.119-89.613S107.516,15.006,141.367,15.006 M141.367,0.006C63.091,0.006-0.365,63.461-0.365,141.738
			S63.091,283.47,141.367,283.47S283.1,220.014,283.1,141.738S219.644,0.006,141.367,0.006L141.367,0.006z"/>
	</g>
</g>
</svg>
