<?xml version="1.0" encoding="utf-8"?>
<!-- Generator: Adobe Illustrator 16.0.0, SVG Export Plug-In . SVG Version: 6.00 Build 0)  -->
<!DOCTYPE svg PUBLIC "-//W3C//DTD SVG 1.1//EN" "http://www.w3.org/Graphics/SVG/1.1/DTD/svg11.dtd">
<svg version="1.1" id="Calque_1" xmlns="http://www.w3.org/2000/svg" xmlns:xlink="http://www.w3.org/1999/xlink" x="0px" y="0px"
	 width="283.462px" height="224.077px" viewBox="0 0 283.462 224.077" enable-background="new 0 0 283.462 224.077"
	 xml:space="preserve">
<g>
	<g>
		<g>
			<path fill="#D2525B" d="M255.117,15c7.359,0,13.346,5.987,13.346,13.347v167.382c0,7.359-5.986,13.348-13.346,13.348H28.346
				c-7.359,0-13.346-5.988-13.346-13.348V28.347C15,20.987,20.987,15,28.346,15H255.117 M255.117,0H28.346
				C12.756,0,0,12.756,0,28.347v167.382c0,15.592,12.756,28.348,28.346,28.348h226.771c15.59,0,28.346-12.756,28.346-28.348V28.347
				C283.462,12.756,270.707,0,255.117,0L255.117,0z"/>
		</g>
	</g>
	<g>
		<g>
			<path fill="#D2525B" d="M137.881,66.814c0-4.061,3.316-7.384,7.382-7.384h1.43c4.066,0,7.385,3.323,7.385,7.384v92.084
				c0,4.064-3.318,7.385-7.385,7.385h-1.43c-4.066,0-7.382-3.32-7.382-7.385V66.814z"/>
			<path fill="#D2525B" d="M185.164,66.814c0-4.061,3.318-7.384,7.383-7.384h26.084c4.063,0,7.385,2.871,7.385,6.38
				c0,3.51-3.322,6.38-7.385,6.38h-9.883c-4.059,0-3.977,0.068-7.383,0.068v24.52c0,4.059,0.004,4.059,0.004,7.385h11.945
				c4.059,0,7.385,2.87,7.385,6.382c0,3.512-3.326,6.383-7.385,6.383h-4.566c-4.059,0-4.059-0.027-7.383-0.027v41.998
				c0,4.064-3.322,7.385-7.385,7.385h-1.434c-4.064,0-7.383-3.32-7.383-7.385V66.814z"/>
		</g>
		<path fill="#D2525B" d="M103.611,99.162c4.313,0,7.814-3.499,7.814-7.817v-7.634c0-14.391-12.447-26.097-27.744-26.097
			S55.938,69.32,55.938,83.711v56.655c0,14.393,12.447,26.096,27.744,26.096c5.871,0,11.318-1.725,15.805-4.662
			c0.705,2.578,3.059,4.473,5.859,4.473c3.357,0,6.08-2.717,6.08-6.078V142.54c0-0.24-0.021-0.475-0.049-0.709
			c0.029-0.486,0.049-0.977,0.049-1.465v-21.131c0-0.277-0.02-0.549-0.049-0.832c0.027-0.232,0.049-0.469,0.049-0.709
			c0-3.35-2.723-6.077-6.08-6.077h-0.012c-0.557-0.127-1.133-0.195-1.723-0.195c-0.594,0-1.17,0.068-1.727,0.195H89.584
			c-3.357,0-6.078,2.727-6.078,6.077c0,3.357,2.721,6.086,6.078,6.086h6.209v16.586c0,5.773-5.432,10.473-12.111,10.473
			c-6.682,0-12.115-4.699-12.115-10.473V83.711c0-5.772,5.434-10.469,12.115-10.469c6.68,0,12.111,4.696,12.111,10.469v7.634
			C95.793,95.663,99.295,99.162,103.611,99.162z"/>
	</g>
</g>
</svg>
