<?xml version="1.0" encoding="utf-8"?>
<!-- Generator: Adobe Illustrator 16.0.0, SVG Export Plug-In . SVG Version: 6.00 Build 0)  -->
<!DOCTYPE svg PUBLIC "-//W3C//DTD SVG 1.1//EN" "http://www.w3.org/Graphics/SVG/1.1/DTD/svg11.dtd">
<svg version="1.1" id="Calque_1" xmlns="http://www.w3.org/2000/svg" xmlns:xlink="http://www.w3.org/1999/xlink" x="0px" y="0px"
	 width="1767.808px" height="283.462px" viewBox="-742.388 0.468 1767.808 283.462"
	 enable-background="new -742.388 0.468 1767.808 283.462" xml:space="preserve">
<g>
	
		<g id="b84507ba-a37d-0d6c-3fcb-8fc531264173" transform="matrix(4.569687698175228,0,0,4.569687698175228,96.32992012448554,-2.2310693714669583)">
		<path fill="#F4F5F5" d="M-87.14,44.761L-87.14,44.761c-5.305,0-9.746-1.79-13.324-5.367l0,0l0,0
			c-3.578-3.578-5.366-8.042-5.366-13.396l0,0l0,0c0-5.257,1.788-9.686,5.366-13.287l0,0l0,0c3.578-3.577,8.019-5.366,13.324-5.366
			l0,0l0,0c5.33,0,9.905,1.667,13.725,5.001l0,0l-4.964,5.439l0,0c-2.555-1.995-5.475-2.993-8.761-2.993l0,0l0,0
			c-3.358,0.024-6.071,1.083-8.14,3.176l0,0l0,0c-2.044,2.068-3.066,4.721-3.066,7.958l0,0l0,0c0,3.48,1.034,6.242,3.103,8.286l0,0
			l0,0c2.068,2.044,4.782,3.066,8.14,3.066l0,0l0,0c2.701,0,4.77-0.523,6.206-1.569l0,0v-6.424l-4.964,0.036v-7.008h12.447v17.485
			l0,0C-77.211,43.105-81.786,44.761-87.14,44.761L-87.14,44.761z M-60.017,19.792v2.774l0,0c1.801-1.825,3.979-2.738,6.534-2.738
			l0,0l0,0c0.803,0,1.57,0.061,2.3,0.183l0,0l-1.095,6.899l0,0c-0.803-0.73-1.959-1.119-3.468-1.168l0,0l0,0
			c-1.703,0.122-3.127,1.351-4.271,3.687l0,0v15.332h-6.972V20.558L-60.017,19.792z M-35.305,45.015L-35.305,45.015
			c-3.626,0-6.656-1.217-9.089-3.649l0,0l0,0c-2.409-2.434-3.614-5.451-3.614-9.054l0,0l0,0c0-3.625,1.204-6.655,3.614-9.089l0,0
			l0,0c2.433-2.433,5.463-3.65,9.089-3.65l0,0l0,0c3.626,0,6.656,1.217,9.089,3.65l0,0l0,0c2.434,2.433,3.65,5.463,3.65,9.089l0,0
			l0,0c0,3.626-1.217,6.643-3.65,9.054l0,0l0,0C-28.649,43.798-31.679,45.015-35.305,45.015L-35.305,45.015z M-35.305,38.993
			L-35.305,38.993L-35.305,38.993c1.874,0,3.407-0.644,4.599-1.935l0,0l0,0c1.192-1.265,1.789-2.847,1.789-4.746l0,0l0,0
			c0-1.898-0.596-3.48-1.789-4.745l0,0l0,0c-1.192-1.29-2.738-1.935-4.636-1.935l0,0l0,0c-1.874,0-3.407,0.645-4.599,1.935l0,0l0,0
			c-1.168,1.265-1.752,2.847-1.752,4.745l0,0l0,0c0,1.899,0.584,3.481,1.752,4.746l0,0l0,0
			C-38.748,38.348-37.203,38.993-35.305,38.993z M-2.781,35.927L-2.781,35.927V19.792h6.972v24.969h-6.972v-2.264l0,0
			c-1.679,1.509-3.675,2.264-5.986,2.264l0,0l0,0c-3.164,0-5.573-0.963-7.228-2.885l0,0l0,0c-1.679-1.922-2.519-4.125-2.519-6.607
			l0,0V19.792h7.009v13.725l0,0c0,1.655,0.414,2.946,1.241,3.869l0,0l0,0c0.827,0.925,2.081,1.412,3.76,1.46l0,0l0,0
			C-5.044,38.749-3.803,37.776-2.781,35.927z M17.114,55.273l-6.972-0.037V20.558l6.972-0.766V21.8l0,0
			c1.874-1.338,3.712-2.008,5.512-2.008l0,0l0,0c3.821,0,6.851,1.253,9.089,3.76l0,0l0,0c2.262,2.482,3.395,5.39,3.395,8.724l0,0
			l0,0c0,3.334-1.133,6.242-3.395,8.724l0,0l0,0c-2.239,2.506-5.269,3.76-9.089,3.76l0,0l0,0c-2.507-0.172-4.344-0.852-5.512-2.046
			l0,0V55.273z M17.114,30.013L17.114,30.013v4.051l0,0c0.34,2.799,2.092,4.442,5.256,4.929l0,0l0,0
			c3.991-0.317,6.242-2.385,6.754-6.206l0,0l0,0c-0.172-4.671-2.421-7.093-6.754-7.263l0,0l0,0
			C19.206,26.034,17.454,27.531,17.114,30.013z M51.353,45.015L51.353,45.015c-3.626,0-6.643-1.217-9.052-3.649l0,0l0,0
			c-2.434-2.434-3.651-5.451-3.651-9.054l0,0l0,0c0-3.625,1.217-6.655,3.651-9.089l0,0l0,0c2.409-2.433,5.426-3.65,9.052-3.65l0,0
			l0,0c3.626,0,6.656,1.217,9.09,3.65l0,0l0,0c2.434,2.433,3.651,5.463,3.651,9.089l0,0l0,0c0,3.626-1.217,6.643-3.651,9.054l0,0
			l0,0C58.009,43.798,54.979,45.015,51.353,45.015L51.353,45.015z M51.353,38.993L51.353,38.993L51.353,38.993
			c1.899,0,3.431-0.644,4.6-1.935l0,0l0,0c1.192-1.265,1.789-2.847,1.789-4.746l0,0l0,0c0-1.898-0.598-3.48-1.789-4.745l0,0l0,0
			c-1.169-1.29-2.713-1.935-4.635-1.935l0,0l0,0c-1.874,0-3.407,0.645-4.599,1.935l0,0l0,0c-1.169,1.265-1.752,2.847-1.752,4.745
			l0,0l0,0c0,1.899,0.583,3.481,1.752,4.746l0,0l0,0C47.91,38.348,49.456,38.993,51.353,38.993z M75.737,28.808L75.737,28.808
			v15.953h-7.008V20.558l7.008-0.766v2.227l0,0c1.559-1.46,3.554-2.19,5.986-2.19l0,0l0,0c3.139,0,5.55,0.949,7.228,2.847l0,0l0,0
			c1.825-1.898,4.564-2.847,8.213-2.847l0,0l0,0c3.164,0,5.585,0.949,7.264,2.847l0,0l0,0c1.655,1.922,2.482,4.137,2.482,6.643l0,0
			v15.442h-6.973V31.035l0,0c0-1.655-0.376-2.945-1.131-3.869l0,0l0,0c-0.755-0.901-1.97-1.375-3.651-1.424l0,0l0,0
			c-1.387,0.097-2.579,1.01-3.578,2.738l0,0l0,0c-0.097,0.511-0.145,1.034-0.145,1.57l0,0v14.711h-6.973V31.035l0,0
			c0-1.655-0.378-2.945-1.131-3.869l0,0l0,0c-0.755-0.901-1.972-1.375-3.651-1.424l0,0l0,0
			C78.146,25.839,76.832,26.862,75.737,28.808z M116.293,27.056l-2.738-4.234l0,0c3.164-1.995,6.827-2.993,10.988-2.993l0,0l0,0
			c2.993,0,5.353,0.827,7.082,2.482l0,0l0,0c1.752,1.679,2.627,4.173,2.627,7.483l0,0v14.967h-6.971v-1.972l0,0
			c-2.045,1.314-3.882,1.972-5.512,1.972l0,0l0,0c-3.311,0-5.804-0.707-7.484-2.117l0,0l0,0c-1.654-1.412-2.482-3.359-2.482-5.841
			l0,0l0,0c0-2.336,0.791-4.417,2.373-6.242l0,0l0,0c1.557-1.825,4.089-2.738,7.593-2.738l0,0l0,0c1.63,0,3.467,0.499,5.512,1.497
			l0,0v-0.766l0,0c-0.05-1.825-1.389-2.823-4.016-2.993l0,0l0,0C120.271,25.56,117.948,26.059,116.293,27.056L116.293,27.056z
			 M127.281,37.276L127.281,37.276v-2.81l0,0c-0.658-1.29-2.239-1.935-4.746-1.935l0,0l0,0c-2.994,0.34-4.574,1.509-4.746,3.504l0,0
			l0,0c0.172,1.971,1.752,3.041,4.746,3.212l0,0l0,0C125.042,39.249,126.622,38.592,127.281,37.276z M147.502,28.918L147.502,28.918
			v15.843h-7.008V20.558l7.008-0.766v2.263l0,0c1.68-1.484,3.676-2.226,5.988-2.226l0,0l0,0c3.163,0,5.571,0.949,7.227,2.847l0,0
			l0,0c1.655,1.922,2.482,4.137,2.482,6.643l0,0v15.442h-6.972V31.035l0,0c0-1.655-0.414-2.945-1.24-3.869l0,0l0,0
			c-0.852-0.901-2.117-1.375-3.798-1.424l0,0l0,0C149.754,25.839,148.524,26.898,147.502,28.918z M176.049,44.761h-6.972V19.792
			h6.972V44.761z M168.82,13.842L168.82,13.842L168.82,13.842c0,0.998,0.329,1.825,0.986,2.482l0,0l0,0
			c0.682,0.657,1.606,0.986,2.774,0.986l0,0l0,0c1.144,0,2.056-0.328,2.738-0.986l0,0l0,0c0.657-0.657,0.986-1.484,0.986-2.482l0,0
			l0,0c0-0.998-0.329-1.837-0.986-2.519l0,0l0,0c-0.682-0.681-1.618-1.022-2.812-1.022l0,0l0,0c-1.119,0-2.019,0.341-2.701,1.022
			l0,0l0,0C169.15,12.005,168.82,12.844,168.82,13.842z M185.357,27.056l-2.738-4.234l0,0c3.164-1.995,6.826-2.993,10.988-2.993l0,0
			l0,0c2.992,0,5.365,0.827,7.117,2.482l0,0l0,0c1.727,1.679,2.591,4.173,2.591,7.483l0,0v14.967h-6.972v-1.972l0,0
			c-2.019,1.314-3.844,1.972-5.475,1.972l0,0l0,0c-3.334,0-5.829-0.707-7.483-2.117l0,0l0,0c-1.68-1.412-2.52-3.359-2.52-5.841l0,0
			l0,0c0-2.336,0.791-4.417,2.373-6.242l0,0l0,0c1.557-1.825,4.1-2.738,7.629-2.738l0,0l0,0c1.605,0,3.431,0.499,5.475,1.497l0,0
			v-0.766l0,0c-0.023-1.825-1.35-2.823-3.979-2.993l0,0l0,0C189.373,25.56,187.036,26.059,185.357,27.056L185.357,27.056z
			 M196.344,37.276L196.344,37.276v-2.81l0,0c-0.657-1.29-2.239-1.935-4.744-1.935l0,0l0,0c-2.994,0.34-4.576,1.509-4.746,3.504l0,0
			l0,0c0.17,1.971,1.752,3.041,4.746,3.212l0,0l0,0C194.105,39.249,195.687,38.592,196.344,37.276z"/>
	</g>
	
		<g id="eb8ee116-946f-66a4-a2bb-64183428be89" transform="matrix(0.9288891262478298,0,0,0.9288891262478298,183.17781124538936,-199.52452538383787)">
		<g>
			<path fill="#F4F5F5" d="M-843.839,520.466c40.883,0,79.211-15.695,108.05-44.532c28.836-28.836,44.532-67.167,44.532-108.048
				c0-40.884-15.696-79.213-44.532-108.049c-28.838-28.838-67.167-44.534-108.05-44.534c-40.884,0-79.213,15.696-108.049,44.534
				c-28.838,28.836-44.534,67.165-44.534,108.049c0,40.881,15.696,79.212,44.534,108.048
				C-923.052,504.77-884.723,520.466-843.839,520.466z M-835.079,494.554c-2.921,0.362-5.841,0.362-8.76,0.362
				c-4.016,0-8.032-0.362-12.046-0.73c-13.143-20.44-22.998-42.345-28.838-65.34h64.611c2.189,5.472,6.206,10.584,10.951,13.869
				C-815.367,460.967-824.129,478.121-835.079,494.554z M-800.4,487.247c6.935-12.771,12.411-25.551,16.792-39.051
				c10.584-2.195,18.981-9.495,22.997-19.35h28.107C-747.107,455.494-771.564,476.302-800.4,487.247z M-717.173,367.886
				c0,12.045-1.827,23.726-4.745,35.04h-39.425c-2.189-4.743-5.841-9.125-10.221-12.411c0.731-8.028,1.095-16.057,1.095-24.091
				c0-11.315-0.729-22.631-2.189-33.581h50.373C-718.633,343.793-717.173,355.84-717.173,367.886z M-732.504,306.925h-44.534
				c-4.745-20.077-11.682-39.058-21.173-57.31C-770.469,260.202-747.107,281.007-732.504,306.925z M-796.019,366.424
				c0,6.208-0.367,12.409-0.731,18.618c-10.221,2.188-18.616,8.758-22.632,17.883h-70.45c-1.46-10.953-2.556-22.266-2.556-33.219
				c0-6.932,0.365-13.867,1.096-20.804c9.491-1.825,17.157-8.031,21.902-16.061h71.181
				C-796.751,343.793-796.019,355.109-796.019,366.424L-796.019,366.424z M-853.331,241.585c3.287-0.364,6.572-0.364,9.492-0.364
				c3.65,0,7.299,0,10.951,0.364c13.14,20.441,22.997,42.343,28.836,65.34h-63.516c-2.189-6.205-6.205-11.682-11.315-15.696
				C-872.312,273.706-863.915,257.281-853.331,241.585L-853.331,241.585z M-888.008,248.884
				c-6.206,11.682-11.682,24.093-16.061,36.504c-11.317,2.191-20.443,10.586-24.093,21.172h-26.647
				C-940.573,280.642-916.846,259.837-888.008,248.884z M-970.504,367.886c0-12.046,1.825-24.093,5.109-35.043h39.789
				c2.189,4.014,5.475,7.666,9.124,10.586c-0.729,8.76-1.458,17.521-1.458,26.278c0,11.322,0.73,22.266,2.189,33.219h-49.644
				C-969.046,391.612-970.504,379.931-970.504,367.886z M-911.37,428.477c4.745,19.719,11.68,39.06,21.172,57.312
				c-27.742-10.953-50.739-31.393-64.977-57.312H-911.37z"/>
		</g>
	</g>
</g>
</svg>
