<?xml version="1.0" encoding="utf-8"?>
<!-- Generator: Adobe Illustrator 16.0.0, SVG Export Plug-In . SVG Version: 6.00 Build 0)  -->
<!DOCTYPE svg PUBLIC "-//W3C//DTD SVG 1.1//EN" "http://www.w3.org/Graphics/SVG/1.1/DTD/svg11.dtd">
<svg version="1.1" id="Calque_1" xmlns="http://www.w3.org/2000/svg" xmlns:xlink="http://www.w3.org/1999/xlink" x="0px" y="0px"
	 width="283.464px" height="283.464px" viewBox="0 0 283.464 283.464" enable-background="new 0 0 283.464 283.464"
	 xml:space="preserve">
<g>
	<path fill="#F4F5F5" d="M229.705,134.643h-80v-80c0-4.143-3.357-7.5-7.5-7.5c-4.142,0-7.5,3.357-7.5,7.5v80h-80
		c-4.142,0-7.5,3.357-7.5,7.5s3.358,7.5,7.5,7.5h80v80.001c0,4.143,3.358,7.5,7.5,7.5c4.143,0,7.5-3.357,7.5-7.5v-80.001h80
		c4.143,0,7.5-3.357,7.5-7.5S233.847,134.643,229.705,134.643z"/>
	<path fill="#F4F5F5" d="M255.036,0.411H28.264c-15.591,0-28.347,12.756-28.347,28.347v226.771
		c0,15.591,12.756,28.347,28.347,28.347h226.771c15.591,0,28.347-12.756,28.347-28.347V28.757
		C283.382,13.167,270.626,0.411,255.036,0.411z M268.382,255.529c0,7.359-5.987,13.347-13.347,13.347H28.264
		c-7.359,0-13.347-5.987-13.347-13.347V28.757c0-7.359,5.987-13.347,13.347-13.347h226.771c7.359,0,13.347,5.987,13.347,13.347
		V255.529z"/>
</g>
</svg>
