<?xml version="1.0" encoding="utf-8"?>
<!-- Generator: Adobe Illustrator 16.0.0, SVG Export Plug-In . SVG Version: 6.00 Build 0)  -->
<!DOCTYPE svg PUBLIC "-//W3C//DTD SVG 1.1//EN" "http://www.w3.org/Graphics/SVG/1.1/DTD/svg11.dtd">
<svg version="1.1" id="Calque_1" xmlns="http://www.w3.org/2000/svg" xmlns:xlink="http://www.w3.org/1999/xlink" x="0px" y="0px"
	 width="283.463px" height="224.076px" viewBox="0 0 283.463 224.076" enable-background="new 0 0 283.463 224.076"
	 xml:space="preserve">
<g>
	<g>
		<g>
			<path fill="#D2525B" d="M255.118,15c7.359,0,13.346,5.987,13.346,13.347v167.381c0,7.361-5.986,13.348-13.346,13.348H28.346
				c-7.358,0-13.346-5.986-13.346-13.348V28.347C15,20.987,20.987,15,28.346,15H255.118 M255.118,0H28.346
				C12.756,0,0,12.756,0,28.347v167.381c0,15.592,12.756,28.348,28.346,28.348h226.772c15.59,0,28.346-12.756,28.346-28.348V28.347
				C283.463,12.756,270.708,0,255.118,0L255.118,0z"/>
		</g>
	</g>
	<path fill="#D2525B" d="M96.519,183c-1.295,0-2.59-0.334-3.75-1.004c-2.32-1.34-3.75-3.816-3.75-6.496V50.214
		c0-2.68,1.43-5.155,3.75-6.495s5.18-1.34,7.5,0l108.501,62.644c2.32,1.34,3.75,3.815,3.75,6.495c0,2.68-1.43,5.156-3.75,6.496
		l-108.501,62.643C99.108,182.666,97.813,183,96.519,183z M104.019,63.204v99.305l86.001-49.652L104.019,63.204z"/>
</g>
</svg>
