<?xml version="1.0" encoding="utf-8"?>
<!-- Generator: Adobe Illustrator 16.0.0, SVG Export Plug-In . SVG Version: 6.00 Build 0)  -->
<!DOCTYPE svg PUBLIC "-//W3C//DTD SVG 1.1//EN" "http://www.w3.org/Graphics/SVG/1.1/DTD/svg11.dtd">
<svg version="1.1" id="Calque_1" xmlns="http://www.w3.org/2000/svg" xmlns:xlink="http://www.w3.org/1999/xlink" x="0px" y="0px"
	 width="274.959px" height="286.876px" viewBox="0 0 274.959 286.876" enable-background="new 0 0 274.959 286.876"
	 xml:space="preserve">
<g>
	<g>
		<path fill="#4D596B" d="M137.479,152.13c-4.142,0-7.5-3.357-7.5-7.5V7.5c0-4.143,3.358-7.5,7.5-7.5c4.143,0,7.5,3.357,7.5,7.5
			v137.131C144.979,148.773,141.622,152.13,137.479,152.13z"/>
		<path fill="#4D596B" d="M137.479,286.876C61.673,286.876,0,225.203,0,149.398c0-48.919,26.334-94.545,68.725-119.073
			c3.583-2.075,8.173-0.851,10.248,2.735c2.074,3.585,0.85,8.173-2.736,10.247C38.465,65.163,15,105.814,15,149.398
			c0,67.535,54.944,122.479,122.479,122.479c67.536,0,122.48-54.943,122.48-122.479c0-43.584-23.465-84.235-61.237-106.09
			c-3.585-2.074-4.81-6.662-2.735-10.247s6.663-4.809,10.247-2.736c42.392,24.527,68.726,70.153,68.726,119.074
			C274.959,225.203,213.286,286.876,137.479,286.876z"/>
	</g>
</g>
</svg>
