<?xml version="1.0" encoding="utf-8"?>
<!-- Generator: Adobe Illustrator 16.0.0, SVG Export Plug-In . SVG Version: 6.00 Build 0)  -->
<!DOCTYPE svg PUBLIC "-//W3C//DTD SVG 1.1//EN" "http://www.w3.org/Graphics/SVG/1.1/DTD/svg11.dtd">
<svg version="1.1" id="Calque_1" xmlns="http://www.w3.org/2000/svg" xmlns:xlink="http://www.w3.org/1999/xlink" x="0px" y="0px"
	 width="283.463px" height="239.87px" viewBox="0 0 283.463 239.87" enable-background="new 0 0 283.463 239.87"
	 xml:space="preserve">
<g>
	<g>
		<path fill="#6D7A8F" d="M179.059,15c1.391,0,3.246,0,4.055,0.127c0.365,0.35,1.396,1.486,2.918,4.379l14.438,29.716
			c2.51,5.165,7.749,8.444,13.491,8.444h41.156c7.359,0,13.346,5.987,13.346,13.347v140.509c0,7.359-5.986,13.348-13.346,13.348
			H28.346c-7.359,0-13.346-5.988-13.346-13.348V71.013c0-7.359,5.987-13.347,13.346-13.347h41.156
			c5.743,0,10.982-3.279,13.492-8.445l14.31-29.453c1.799-3.102,2.925-4.29,3.341-4.667C101.428,15,103.125,15,104.404,15H179.059
			 M179.059,0h-74.655c-7.795,0-13.117,0-20.367,12.748L69.502,42.666H28.346C12.756,42.666,0,55.422,0,71.013v140.509
			c0,15.592,12.756,28.348,28.346,28.348h226.772c15.59,0,28.346-12.756,28.346-28.348V71.013c0-15.591-12.756-28.347-28.346-28.347
			h-41.156l-14.535-29.918C192.788,0,186.854,0,179.059,0L179.059,0z"/>
		<path fill="#6D7A8F" d="M141.731,217.022c-46.44,0-84.223-37.783-84.223-84.223c0-46.441,37.782-84.223,84.223-84.223
			c46.441,0,84.222,37.782,84.222,84.223C225.954,179.239,188.172,217.022,141.731,217.022z M141.731,63.576
			c-38.169,0-69.223,31.053-69.223,69.223c0,38.17,31.053,69.223,69.223,69.223s69.222-31.053,69.222-69.223
			C210.954,94.629,179.901,63.576,141.731,63.576z"/>
		<path fill="#6D7A8F" d="M141.731,94.59c21.068,0,38.208,17.141,38.208,38.209c0,21.068-17.141,38.209-38.208,38.209
			c-21.068,0-38.209-17.141-38.209-38.209C103.522,111.73,120.663,94.59,141.731,94.59 M141.731,79.59
			c-29.388,0-53.209,23.821-53.209,53.209c0,29.387,23.821,53.209,53.209,53.209c29.388,0,53.208-23.822,53.208-53.209
			C194.94,103.411,171.12,79.59,141.731,79.59L141.731,79.59z"/>
		<circle fill="#6D7A8F" cx="242.468" cy="76.996" r="9.921"/>
	</g>
	<rect x="97.999" y="125.299" fill="#6D7A8F" width="86.667" height="15"/>
</g>
</svg>
