<?xml version="1.0" encoding="utf-8"?>
<!-- Generator: Adobe Illustrator 16.0.0, SVG Export Plug-In . SVG Version: 6.00 Build 0)  -->
<!DOCTYPE svg PUBLIC "-//W3C//DTD SVG 1.1//EN" "http://www.w3.org/Graphics/SVG/1.1/DTD/svg11.dtd">
<svg version="1.1" id="Calque_1" xmlns="http://www.w3.org/2000/svg" xmlns:xlink="http://www.w3.org/1999/xlink" x="0px" y="0px"
	 width="283.464px" height="283.464px" viewBox="0 0 283.464 283.464" enable-background="new 0 0 283.464 283.464"
	 xml:space="preserve">
<path fill="#6C7A8F" d="M142.065,13.534c70.505,0,127.866,48.12,127.866,107.267c0,30.859-15.925,60.269-43.691,80.688l-5.652,4.156
	v7.016v45.791l-49.03-29.854l-4.195-2.555l-4.869,0.656c-6.744,0.909-13.616,1.37-20.427,1.37
	C71.56,228.068,14.2,179.948,14.2,120.8C14.2,61.653,71.56,13.534,142.065,13.534 M142.065-0.333
	C63.789-0.333,0.333,53.9,0.333,120.8s63.456,121.135,141.732,121.135c7.581,0,15.02-0.516,22.28-1.494l70.109,42.689V212.66
	c30.209-22.215,49.344-55.127,49.344-91.859C283.798,53.9,220.341-0.333,142.065-0.333L142.065-0.333z"/>
</svg>
