<?xml version="1.0" encoding="utf-8"?>
<!-- Generator: Adobe Illustrator 16.0.0, SVG Export Plug-In . SVG Version: 6.00 Build 0)  -->
<!DOCTYPE svg PUBLIC "-//W3C//DTD SVG 1.1//EN" "http://www.w3.org/Graphics/SVG/1.1/DTD/svg11.dtd">
<svg version="1.1" id="Calque_1" xmlns="http://www.w3.org/2000/svg" xmlns:xlink="http://www.w3.org/1999/xlink" x="0px" y="0px"
	 width="283.464px" height="283.464px" viewBox="0 0 283.464 283.464" enable-background="new 0 0 283.464 283.464"
	 xml:space="preserve">
<path fill="#F4F5F5" d="M82.373,27.617c18.152,0,35.218,7.068,48.054,19.904c2.809,2.81,6.618,4.39,10.59,4.394
	c0.06,0.001,0.12,0.002,0.179,0.002c0.021,0,0.042,0,0.063,0c3.977,0,7.793-1.58,10.606-4.394
	c12.836-12.837,29.902-19.906,48.057-19.906c18.152,0,35.218,7.069,48.053,19.904c26.497,26.497,26.496,69.611,0,96.109
	L141.146,250.458L34.318,143.628c-26.497-26.497-26.497-69.61,0-96.107C47.154,34.685,64.22,27.617,82.373,27.617 M82.373,12.617
	c-21.231,0-42.462,8.099-58.661,24.298c-32.396,32.397-32.396,84.924,0,117.321l117.434,117.434L258.58,154.236
	c32.397-32.398,32.397-84.925,0.002-117.322c-16.197-16.197-37.433-24.298-58.66-24.298c-21.234,0-42.463,8.099-58.664,24.3
	l-0.113-0.115l-0.112,0.113C124.834,20.715,103.604,12.617,82.373,12.617L82.373,12.617z"/>
</svg>
