<?xml version="1.0" encoding="utf-8"?>
<!-- Generator: Adobe Illustrator 16.0.0, SVG Export Plug-In . SVG Version: 6.00 Build 0)  -->
<!DOCTYPE svg PUBLIC "-//W3C//DTD SVG 1.1//EN" "http://www.w3.org/Graphics/SVG/1.1/DTD/svg11.dtd">
<svg version="1.1" id="Calque_1" xmlns="http://www.w3.org/2000/svg" xmlns:xlink="http://www.w3.org/1999/xlink" x="0px" y="0px"
	 width="78.027px" height="78px" viewBox="0 0 78.027 78" enable-background="new 0 0 78.027 78" xml:space="preserve">
<g id="eb8ee116-946f-66a4-a2bb-64183428be89" transform="matrix(0.9288891262478298,0,0,0.9288891262478298,183.17781124538936,-199.52452538383787)">
	<g>
		<path fill="#F4F5F5" d="M-155,298.8c11.2,0,21.7-4.3,29.6-12.2c7.9-7.9,12.2-18.4,12.2-29.6c0-11.2-4.3-21.7-12.2-29.6
			c-7.9-7.9-18.4-12.2-29.6-12.2c-11.2,0-21.7,4.3-29.6,12.2c-7.9,7.9-12.2,18.4-12.2,29.6c0,11.2,4.3,21.7,12.2,29.6
			C-176.7,294.5-166.2,298.8-155,298.8z M-152.6,291.7c-0.8,0.1-1.6,0.1-2.4,0.1c-1.1,0-2.2-0.1-3.3-0.2c-3.6-5.6-6.3-11.6-7.9-17.9
			h17.7c0.6,1.499,1.7,2.9,3,3.799C-147.2,282.5-149.6,287.2-152.6,291.7z M-143.1,289.7c1.9-3.5,3.4-7,4.6-10.699
			c2.9-0.6,5.2-2.6,6.3-5.3h7.7C-128.5,281-135.2,286.7-143.1,289.7z M-120.3,257c0,3.3-0.5,6.5-1.3,9.6h-10.8
			c-0.6-1.299-1.6-2.5-2.8-3.4c0.2-2.199,0.3-4.4,0.3-6.6c0-3.1-0.2-6.2-0.6-9.2h13.8C-120.7,250.4-120.3,253.7-120.3,257z
			 M-124.5,240.3h-12.2c-1.3-5.5-3.2-10.7-5.8-15.7C-134.9,227.5-128.5,233.2-124.5,240.3z M-141.9,256.6c0,1.701-0.1,3.4-0.2,5.101
			c-2.8,0.599-5.1,2.399-6.2,4.899h-19.3c-0.4-3-0.7-6.1-0.7-9.1c0-1.9,0.1-3.799,0.3-5.7c2.6-0.5,4.7-2.2,6-4.4h19.5
			C-142.1,250.4-141.9,253.5-141.9,256.6L-141.9,256.6z M-157.6,222.4c0.9-0.1,1.8-0.1,2.6-0.1c1,0,2,0,3,0.1
			c3.6,5.6,6.3,11.6,7.9,17.9h-17.4c-0.6-1.7-1.7-3.2-3.1-4.3C-162.8,231.2-160.5,226.7-157.6,222.4L-157.6,222.4z M-167.1,224.4
			c-1.7,3.2-3.2,6.6-4.4,10c-3.1,0.6-5.6,2.9-6.6,5.8h-7.3C-181.5,233.1-175,227.4-167.1,224.4z M-189.7,257c0-3.3,0.5-6.6,1.4-9.6
			h10.9c0.6,1.1,1.5,2.1,2.5,2.9c-0.2,2.4-0.4,4.8-0.4,7.199c0,3.1,0.2,6.1,0.6,9.1h-13.6C-189.3,263.501-189.7,260.3-189.7,257z
			 M-173.5,273.6c1.3,5.401,3.2,10.7,5.8,15.7c-7.6-3-13.9-8.6-17.8-15.7H-173.5z"/>
	</g>
</g>
</svg>
