<?xml version="1.0" encoding="utf-8"?>
<!-- Generator: Adobe Illustrator 16.0.0, SVG Export Plug-In . SVG Version: 6.00 Build 0)  -->
<!DOCTYPE svg PUBLIC "-//W3C//DTD SVG 1.1//EN" "http://www.w3.org/Graphics/SVG/1.1/DTD/svg11.dtd">
<svg version="1.1" id="Calque_1" xmlns="http://www.w3.org/2000/svg" xmlns:xlink="http://www.w3.org/1999/xlink" x="0px" y="0px"
	 width="283.464px" height="283.464px" viewBox="0 0 283.464 283.464" enable-background="new 0 0 283.464 283.464"
	 xml:space="preserve">
<g>
	<path fill="#F4F5F5" d="M141.732,185.269c42.354,0,74.336,7.844,95.061,23.313c18.08,13.498,28.278,33.174,30.955,59.883H141.732
		H15.717c2.676-26.709,12.875-46.385,30.956-59.883C67.396,193.113,99.379,185.269,141.732,185.269 M141.732,170.269
		C53.288,170.269,0,202.652,0,283.464h141.732h141.73C283.464,202.652,230.177,170.269,141.732,170.269L141.732,170.269z"/>
	<path fill="#F4F5F5" d="M141.733,15c33.619,0,60.972,27.353,60.972,60.973c0,33.62-27.353,60.972-60.972,60.972
		c-33.621,0-60.973-27.352-60.973-60.972C80.76,42.353,108.113,15,141.733,15 M141.733,0C99.774,0,65.761,34.014,65.761,75.973
		s34.014,75.972,75.973,75.972c41.956,0,75.971-34.013,75.971-75.972S183.689,0,141.733,0L141.733,0z"/>
</g>
</svg>
