<?xml version="1.0" encoding="utf-8"?>
<!-- Generator: Adobe Illustrator 16.0.0, SVG Export Plug-In . SVG Version: 6.00 Build 0)  -->
<!DOCTYPE svg PUBLIC "-//W3C//DTD SVG 1.1//EN" "http://www.w3.org/Graphics/SVG/1.1/DTD/svg11.dtd">
<svg version="1.1" id="Calque_1" xmlns="http://www.w3.org/2000/svg" xmlns:xlink="http://www.w3.org/1999/xlink" x="0px" y="0px"
	 width="283.464px" height="239.869px" viewBox="0 0 283.464 239.869" enable-background="new 0 0 283.464 239.869"
	 xml:space="preserve">
<g>
	<g>
		<path fill="#D2525B" d="M179.06,15c1.391,0,3.245,0,4.055,0.127c0.365,0.35,1.396,1.486,2.918,4.379l14.438,29.716
			c2.51,5.165,7.748,8.444,13.491,8.444h41.155c7.359,0,13.347,5.987,13.347,13.347v140.509c0,7.36-5.987,13.348-13.347,13.348
			H28.346c-7.359,0-13.346-5.987-13.346-13.348V71.013c0-7.359,5.987-13.347,13.346-13.347h41.156
			c5.743,0,10.982-3.279,13.492-8.445l14.31-29.453c1.799-3.102,2.925-4.29,3.341-4.667C101.428,15,103.125,15,104.404,15H179.06
			 M179.06,0h-74.655c-7.795,0-13.117,0-20.367,12.748L69.502,42.666H28.346C12.756,42.666,0,55.422,0,71.013v140.509
			c0,15.592,12.756,28.348,28.346,28.348h226.771c15.591,0,28.347-12.756,28.347-28.348V71.013
			c0-15.591-12.756-28.347-28.347-28.347h-41.155l-14.536-29.918C192.787,0,186.854,0,179.06,0L179.06,0z"/>
		<path fill="#D2525B" d="M141.731,217.021c-46.44,0-84.223-37.782-84.223-84.223s37.782-84.223,84.223-84.223
			s84.223,37.782,84.223,84.223S188.172,217.021,141.731,217.021z M141.731,63.576c-38.169,0-69.223,31.053-69.223,69.223
			s31.053,69.223,69.223,69.223c38.169,0,69.223-31.053,69.223-69.223S179.9,63.576,141.731,63.576z"/>
		<path fill="#D2525B" d="M141.731,94.59c21.068,0,38.209,17.141,38.209,38.209s-17.141,38.209-38.209,38.209
			s-38.209-17.141-38.209-38.209S120.663,94.59,141.731,94.59 M141.731,79.59c-29.388,0-53.209,23.821-53.209,53.209
			s23.821,53.209,53.209,53.209s53.209-23.821,53.209-53.209S171.119,79.59,141.731,79.59L141.731,79.59z"/>
		<circle fill="#D2525B" cx="242.469" cy="76.996" r="9.921"/>
	</g>
	<rect x="97.999" y="125.299" fill="#D2525B" width="86.667" height="15"/>
</g>
</svg>
