<?xml version="1.0" encoding="utf-8"?>
<!-- Generator: Adobe Illustrator 16.0.0, SVG Export Plug-In . SVG Version: 6.00 Build 0)  -->
<!DOCTYPE svg PUBLIC "-//W3C//DTD SVG 1.1//EN" "http://www.w3.org/Graphics/SVG/1.1/DTD/svg11.dtd">
<svg version="1.1" id="Calque_1" xmlns="http://www.w3.org/2000/svg" xmlns:xlink="http://www.w3.org/1999/xlink" x="0px" y="0px"
	 width="283.462px" height="224.077px" viewBox="0 0 283.462 224.077" enable-background="new 0 0 283.462 224.077"
	 xml:space="preserve">
<path fill="#D2525B" d="M255.117,0H28.346C12.756,0,0,12.756,0,28.347v167.382c0,15.592,12.756,28.348,28.346,28.348h226.771
	c15.59,0,28.346-12.756,28.346-28.348V28.347C283.462,12.756,270.707,0,255.117,0z M111.426,91.345c0,4.318-3.502,7.817-7.814,7.817
	c-4.316,0-7.818-3.499-7.818-7.817v-7.634c0-5.772-5.432-10.469-12.111-10.469c-6.682,0-12.115,4.696-12.115,10.469v56.655
	c0,5.773,5.434,10.473,12.115,10.473c6.68,0,12.111-4.699,12.111-10.473V123.78h-6.209c-3.357,0-6.078-2.729-6.078-6.086
	c0-3.35,2.721-6.077,6.078-6.077h12.301c0.557-0.127,1.133-0.195,1.727-0.195c0.59,0,1.166,0.068,1.723,0.195h0.012
	c3.357,0,6.08,2.727,6.08,6.077c0,0.24-0.021,0.477-0.049,0.709c0.029,0.283,0.049,0.555,0.049,0.832v21.131
	c0,0.488-0.02,0.979-0.049,1.465c0.027,0.234,0.049,0.469,0.049,0.709v17.654c0,3.361-2.723,6.078-6.08,6.078
	c-2.801,0-5.154-1.895-5.859-4.473c-4.486,2.938-9.934,4.662-15.805,4.662c-15.297,0-27.744-11.703-27.744-26.096V83.711
	c0-14.391,12.447-26.097,27.744-26.097s27.744,11.706,27.744,26.097V91.345z M154.078,158.899c0,4.064-3.318,7.385-7.385,7.385
	h-1.43c-4.066,0-7.382-3.32-7.382-7.385V66.814c0-4.061,3.316-7.384,7.382-7.384h1.43c4.066,0,7.385,3.323,7.385,7.384V158.899z
	 M218.63,72.19h-9.883c-4.059,0-3.977,0.068-7.383,0.068v24.52c0,4.059,0.004,4.059,0.004,7.385h11.945
	c4.059,0,7.385,2.87,7.385,6.382c0,3.512-3.326,6.383-7.385,6.383h-4.566c-4.059,0-4.059-0.027-7.383-0.027v41.998
	c0,4.064-3.322,7.385-7.385,7.385h-1.434c-4.064,0-7.383-3.32-7.383-7.385V66.814c0-4.061,3.318-7.384,7.383-7.384h26.084
	c4.063,0,7.385,2.871,7.385,6.38C226.015,69.32,222.693,72.19,218.63,72.19z"/>
</svg>
