<?xml version="1.0" encoding="utf-8"?>
<!-- Generator: Adobe Illustrator 16.0.0, SVG Export Plug-In . SVG Version: 6.00 Build 0)  -->
<!DOCTYPE svg PUBLIC "-//W3C//DTD SVG 1.1//EN" "http://www.w3.org/Graphics/SVG/1.1/DTD/svg11.dtd">
<svg version="1.1" id="Calque_1" xmlns="http://www.w3.org/2000/svg" xmlns:xlink="http://www.w3.org/1999/xlink" x="0px" y="0px"
	 width="283.464px" height="283.464px" viewBox="0 0 283.464 283.464" enable-background="new 0 0 283.464 283.464"
	 xml:space="preserve">
<path fill="#F5F6F6" d="M224.847,277.856c-1.985,0-3.988-0.618-5.955-1.837l-76.243-47.234c-0.097-0.031-0.343-0.089-0.684-0.089
	s-0.588,0.058-0.685,0.089l-76.242,47.234c-1.967,1.219-3.971,1.837-5.955,1.837c-2.766,0-5.311-1.223-6.982-3.354
	c-1.078-1.375-2.717-4.375-1.576-9.027l21.365-87.113c0.008-0.346-0.21-1.019-0.421-1.295L2.98,119.149
	c-3.465-2.93-4.815-6.894-3.611-10.603c1.205-3.709,4.626-6.124,9.153-6.458l89.451-6.6c0.333-0.099,0.906-0.515,1.104-0.801
	l33.918-83.033c1.716-4.201,5.069-6.71,8.969-6.71c3.9,0,7.253,2.508,8.97,6.71l33.918,83.033c0.197,0.286,0.77,0.702,1.103,0.801
	l89.45,6.6c4.527,0.334,7.949,2.749,9.154,6.458c1.204,3.709-0.146,7.673-3.611,10.604l-68.486,57.916
	c-0.211,0.276-0.43,0.949-0.421,1.296l21.364,87.112c1.141,4.651-0.498,7.652-1.576,9.027
	C230.156,276.633,227.611,277.856,224.847,277.856z M141.964,213.696c3.103,0,6.123,0.813,8.505,2.288l65.271,40.438l-18.288-74.573
	c-1.381-5.631,0.83-12.435,5.258-16.179l58.625-49.579l-76.572-5.65c-5.781-0.426-11.569-4.631-13.762-9.999l-29.037-71.08
	l-29.036,71.08c-2.192,5.366-7.98,9.571-13.762,9.999l-76.574,5.65l58.627,49.579c4.427,3.744,6.638,10.548,5.257,16.18
	l-18.289,74.572l65.27-40.438C135.841,214.508,138.862,213.696,141.964,213.696z"/>
</svg>
