<!-- Generator: Adobe Illustrator 16.0.0, SVG Export Plug-In . SVG Version: 6.00 Build 0)  -->
<!DOCTYPE svg PUBLIC "-//W3C//DTD SVG 1.1//EN" "http://www.w3.org/Graphics/SVG/1.1/DTD/svg11.dtd">
<svg version="1.1" id="Calque_1" xmlns="http://www.w3.org/2000/svg" xmlns:xlink="http://www.w3.org/1999/xlink" x="0px" y="0px"
	 width="423.006px" height="423.006px" viewBox="0 0 423.006 423.006" enable-background="new 0 0 423.006 423.006"
	 xml:space="preserve">
<g id="_x36_40fb903-7c97-3a8b-d0a7-369102908d0a" transform="matrix(0.8499999999999999,0,0,0.8499999999999999,22.500006484985377,22.50005836486818)">
	<g>
		<path fill="#D2525B" d="M222.358,471.184c66.67,0,129.175-25.597,176.202-72.624c47.027-47.028,72.624-109.532,72.624-176.204
			c0-66.67-25.597-129.175-72.624-176.202C351.533-0.874,289.028-26.471,222.358-26.471c-66.673,0-129.176,25.597-176.204,72.624
			C-0.873,93.181-26.471,155.685-26.471,222.356c0,66.672,25.597,129.176,72.624,176.204
			C93.18,445.586,155.685,471.184,222.358,471.184z M236.643,428.918c-4.761,0.595-9.524,0.595-14.285,0.595
			c-6.549,0-13.097-0.595-19.644-1.19c-21.432-33.335-37.505-69.052-47.029-106.554H261.05c3.571,8.929,10.119,17.262,17.858,22.621
			C268.789,374.153,254.501,402.131,236.643,428.918z M293.196,417.013c11.31-20.835,20.239-41.671,27.383-63.695
			c17.263-3.572,30.954-15.478,37.502-31.55h45.836C380.106,365.223,340.223,399.155,293.196,417.013z M428.92,222.356
			c0,19.645-2.978,38.694-7.739,57.147h-64.29c-3.573-7.738-9.524-14.882-16.668-20.239c1.19-13.096,1.785-26.193,1.785-39.289
			c0-18.454-1.19-36.907-3.571-54.766h82.148C426.537,183.068,428.92,202.712,428.92,222.356z M403.918,122.944h-72.624
			c-7.739-32.74-19.049-63.695-34.527-93.458C342.008,46.749,380.106,80.68,403.918,122.944z M300.338,219.975
			c0,10.119-0.595,20.239-1.19,30.36c-16.668,3.572-30.358,14.287-36.907,29.168h-114.89c-2.381-17.858-4.166-36.312-4.166-54.171
			c0-11.31,0.595-22.621,1.785-33.93c15.478-2.977,27.978-13.096,35.717-26.193h116.08
			C299.148,183.068,300.338,201.522,300.338,219.975L300.338,219.975z M206.88,16.39c5.358-0.595,10.715-0.595,15.478-0.595
			c5.951,0,11.905,0,17.858,0.595c21.429,33.335,37.502,69.052,47.027,106.554h-103.58c-3.571-10.119-10.12-19.049-18.454-25.596
			C175.926,68.773,189.616,41.986,206.88,16.39z M150.329,28.295c-10.119,19.049-19.049,39.288-26.193,59.528
			c-18.454,3.572-33.336,17.262-39.289,34.526H41.392C64.607,80.084,103.302,46.153,150.329,28.295z M15.795,222.356
			c0-19.644,2.976-39.288,8.334-57.146h64.885c3.571,6.549,8.929,12.5,14.883,17.263c-1.193,14.287-2.383,28.573-2.383,42.86
			c0,18.454,1.19,36.312,3.573,54.171H24.129C18.176,261.049,15.795,242.001,15.795,222.356z M112.231,321.172
			c7.737,32.146,19.049,63.696,34.524,93.459c-45.241-17.858-82.744-51.194-105.959-93.459H112.231z"/>
	</g>
</g>
</svg>
